<svg class="social-list__icon" width="31" height="27" viewBox="0 0 31 28" xmlns="http://www.w3.org/2000/svg"><path fill-rule="evenodd" clip-rule="evenodd" d="M6.681 17.03c.066.021.132.037.199.047a477.883 477.883 0 011.267 3.003c.753 1.803 1.513 3.66 1.68 4.193.209.657.428 1.104.668 1.41.124.157.267.295.435.4.085.052.174.095.267.127l.012.004c.48.181.918.106 1.192.014a1.956 1.956 0 00.457-.225l.007-.004 4.24-2.644L22 27.109c.072.055.151.102.235.138.588.257 1.158.347 1.694.273a2.59 2.59 0 001.275-.55 2.989 2.989 0 00.846-1.093l.014-.033.005-.012.003-.006v-.002l.002-.003a1.12 1.12 0 00.059-.199l4.47-22.538c.014-.072.021-.145.021-.219 0-.66-.248-1.287-.833-1.668-.5-.326-1.057-.34-1.409-.313a4.34 4.34 0 00-.965.197 5.194 5.194 0 00-.39.142l-.016.007L1.94 11.065l-.003.001a2.76 2.76 0 00-.25.103 3.783 3.783 0 00-.57.318c-.34.233-1.125.873-.993 1.928.106.841.682 1.358 1.034 1.607.192.136.376.234.51.297.061.03.19.082.245.105l.014.005 4.753 1.6zM27.89 3.301l-.003.001-.038.016-25.101 9.847-.04.014-.014.006a1.505 1.505 0 00-.137.06 1.34 1.34 0 00.13.064L7.4 14.896c.087.03.167.068.24.114l15.566-9.112.015-.008a2.461 2.461 0 01.186-.102c.108-.055.28-.137.475-.197.136-.042.535-.16.968-.021a1.28 1.28 0 01.882 1.034c.061.224.051.445.003.636-.103.412-.392.733-.655.979-.226.21-3.144 3.024-6.023 5.802l-3.918 3.782-.698.673 8.808 6.753c.202.072.322.069.377.061a.342.342 0 00.175-.078.744.744 0 00.155-.18l.002-.002 4.336-21.86a2.785 2.785 0 00-.401.13h-.003zm-12.692 18.59l-1.757-1.347-.426 2.709 2.183-1.361zm-3.37-4.02l1.748-1.687c1.062-1.025 2.483-2.397 3.92-3.782l1.458-1.408-9.78 5.726.052.123c.267.63.626 1.48.998 2.369.277.664.568 1.364.832 2.011l.425-2.7c.04-.26.168-.486.348-.652z"/></svg>