<svg class="social-list__icon" width="35" height="23" viewBox="0 0 36 23" xmlns="http://www.w3.org/2000/svg"><path fill-rule="evenodd" clip-rule="evenodd" d="M35.107 18.297a17.09 17.09 0 00-3.183-4.445 23.401 23.401 0 00-1.359-1.41l-.056-.055c-.208-.204-.38-.372-.52-.518a44.583 44.583 0 004.515-7.856l.05-.111.035-.117c.163-.545.35-1.58-.312-2.515C33.594.303 32.5.129 31.767.129h-3.37a3.348 3.348 0 00-3.287 2.164 26.27 26.27 0 01-2.708 4.906v-3.95c0-.51-.048-1.365-.595-2.086C21.153.3 20.207.13 19.55.13h-5.348a2.72 2.72 0 00-2.776 2.524l-.005.067v.067c0 .728.29 1.265.52 1.603.103.151.213.29.283.376l.016.02c.074.093.124.155.174.222.13.179.32.454.373 1.165v2.209c-.922-1.516-1.895-3.533-2.627-5.687l-.011-.033-.012-.033C9.953 2.152 9.66 1.456 9.074.924 8.39.302 7.58.129 6.843.129h-3.42c-.745 0-1.644.174-2.314.881-.66.695-.734 1.529-.734 1.972v.2l.042.195a29.145 29.145 0 005.702 12.03 15.227 15.227 0 0011.838 7.038l.063.004h.063c1.089 0 2.224-.094 3.077-.663 1.152-.767 1.242-1.946 1.242-2.533v-1.707c.296.24.662.56 1.11.993.543.543.975 1.013 1.346 1.424l.198.22v.001c.289.32.572.636.83.895.324.326.723.685 1.226.95a3.613 3.613 0 001.72.418h3.423c.721 0 1.755-.171 2.482-1.014.793-.918.732-2.044.483-2.854l-.045-.145-.068-.137zm-8.578.159c-.386-.427-.85-.933-1.437-1.52l-.005-.005c-2.034-1.961-2.985-2.303-3.657-2.303-.357 0-.753.04-1.01.36-.12.15-.184.333-.22.523a3.64 3.64 0 00-.048.665v3.077c0 .382-.063.543-.24.66-.235.158-.738.285-1.816.286a12.976 12.976 0 01-10.128-6.08l-.012-.018-.014-.018a26.896 26.896 0 01-5.317-11.14c.005-.196.048-.312.117-.385.07-.075.243-.18.68-.18h3.42c.381 0 .578.083.72.212.16.146.3.393.469.836.84 2.469 1.975 4.778 3.05 6.475.537.849 1.066 1.555 1.542 2.054.238.25.471.456.694.603.215.142.46.254.71.254.133 0 .288-.014.437-.08a.786.786 0 00.373-.348c.156-.281.199-.697.199-1.242V6.096l-.001-.011c-.078-1.228-.448-1.918-.81-2.41A6.958 6.958 0 0014 3.386l-.018-.023a4.063 4.063 0 01-.184-.241c-.09-.132-.124-.223-.127-.322a.47.47 0 01.486-.421h5.392c.309 0 .413.075.466.144.073.098.137.3.137.726v6.793c0 .807.372 1.353.912 1.353.622 0 1.07-.377 1.853-1.16l.013-.014.012-.014a28.522 28.522 0 004.26-7.083l.007-.019a1.098 1.098 0 011.11-.727h3.448c.469 0 .623.12.673.19.053.075.09.236 0 .551a42.325 42.325 0 01-4.543 7.8l-.011.018c-.174.265-.364.559-.392.896-.03.362.127.691.402 1.044.2.296.611.699 1.03 1.108l.039.039c.438.429.913.893 1.294 1.343l.01.012.011.011a14.841 14.841 0 012.798 3.88c.114.39.044.59-.045.694-.104.12-.337.233-.778.233h-3.422c-.267 0-.474-.053-.67-.157-.206-.109-.417-.281-.682-.547a22.415 22.415 0 01-.73-.79l-.222-.247z"/></svg>