<svg xmlns="http://www.w3.org/2000/svg" xmlns:xlink="http://www.w3.org/1999/xlink"><defs>
<clipPath id="clip0_2403_1829">
<rect width="20" height="20" fill="currentColor"/>
</clipPath>
</defs><symbol id="arrow__right" viewBox="0 0 24 12"><g fill="none">
<line y1="6" x2="18" y2="6" stroke="black" stroke-width="2"/>
<path d="M24 6L17.25 11.1962L17.25 0.803848L24 6Z" fill="black"/>
</g></symbol><symbol id="card" viewBox="0 0 18 16"><g fill="none">
<path d="M17.8961 3.05166C17.7931 2.91219 17.6273 2.82598 17.4472 2.81871L6.28162 2.36415C5.96126 2.35091 5.69355 2.58451 5.67986 2.88567C5.66624 3.18672 5.91317 3.44109 6.232 3.45403L16.6416 3.87785L14.5949 9.90927H5.48658L3.84103 1.44689C3.80486 1.26142 3.67004 1.10669 3.4841 1.03779L0.788965 0.037775C0.491928 -0.072061 0.156743 0.065738 0.0400874 0.345939C-0.0763672 0.626293 0.0694931 0.943056 0.36637 1.05323L2.76277 1.94238L4.43736 10.5533C4.48784 10.8122 4.72671 11.0002 5.0055 11.0002H5.28328L4.64896 12.6643C4.59587 12.8037 4.61775 12.9585 4.7081 13.0796C4.79833 13.2007 4.94508 13.2728 5.10173 13.2728H5.54664C5.27095 13.5625 5.10173 13.9441 5.10173 14.3637C5.10173 15.266 5.87913 16.0001 6.83433 16.0001C7.78953 16.0001 8.56693 15.266 8.56693 14.3637C8.56693 13.9441 8.39771 13.5625 8.12206 13.2728H11.8996C11.6237 13.5625 11.4546 13.9441 11.4546 14.3637C11.4546 15.266 12.2318 16.0001 13.1872 16.0001C14.1426 16.0001 14.9198 15.266 14.9198 14.3637C14.9198 13.9441 14.7506 13.5625 14.475 13.2728H15.016C15.2819 13.2728 15.4973 13.0693 15.4973 12.8182C15.4973 12.5671 15.2819 12.3637 15.016 12.3637H5.78652L6.30624 11H15.016C15.2672 11 15.4894 10.8468 15.5659 10.6211L17.9723 3.53C18.0275 3.36816 17.9992 3.19121 17.8961 3.05166ZM6.83437 15.0912C6.40968 15.0912 6.0643 14.765 6.0643 14.3639C6.0643 13.9628 6.40968 13.6366 6.83437 13.6366C7.25906 13.6366 7.6044 13.9628 7.6044 14.3639C7.6044 14.765 7.25906 15.0912 6.83437 15.0912ZM13.1872 15.0912C12.7625 15.0912 12.4171 14.765 12.4171 14.3639C12.4171 13.9628 12.7625 13.6366 13.1872 13.6366C13.6119 13.6366 13.9572 13.9628 13.9572 14.3639C13.9572 14.765 13.6119 15.0912 13.1872 15.0912Z" fill="#1B1A17"/>
</g></symbol><symbol id="check" viewBox="0 0 19 15"><g fill="none">
<path d="M7 11.718L1.3 5.26951L0.25 6.45739L7 14.0938L18.25 1.36648L17.2 0.09375L7 11.718Z" fill="#68B738"/>
</g></symbol><symbol id="close_x" viewBox="0 0 19 20"><g fill="none">
<line y1="-0.75" x2="24.7577" y2="-0.75" transform="matrix(0.686589 -0.727046 0.686589 0.727046 1.16248 19.805)" stroke="black" stroke-width="1.5"/>
<line y1="-0.75" x2="24.7577" y2="-0.75" transform="matrix(0.686589 0.727046 -0.686589 0.727046 0.160767 1.80499)" stroke="black" stroke-width="1.5"/>
</g></symbol><symbol id="cross" viewBox="0 0 32 32"><path d="M7 24L25 8M25 24L7 8" stroke-width="3" stroke-linecap="round"/></symbol><symbol id="email" viewBox="0 0 19 14"><g fill="none">
<line x1="0.65" y1="5.84766" x2="0.65" y2="13.8477" stroke="currentColor" stroke-width="1.3"/>
<line x1="17.65" y1="5.84766" x2="17.65" y2="13.8477" stroke="currentColor" stroke-width="1.3"/>
<line y1="13.1977" x2="18" y2="13.1977" stroke="currentColor" stroke-width="1.3"/>
<line y1="1.19766" x2="18" y2="1.19766" stroke="currentColor" stroke-width="1.3"/>
<path d="M17.35 3.02975L9.00002 9.5242L0.65 3.02975V1.49766H3.5L9.00002 1.49766H14H17.35V3.02975Z" stroke="currentColor" stroke-width="1.3"/>
</g></symbol><symbol id="facebook" viewBox="0 0 15 29"><g fill="none">
<path d="M14.0001 0.749756H10.5001C8.95299 0.749756 7.46925 1.45999 6.37529 2.72423C5.28133 3.98846 4.66675 5.70313 4.66675 7.49103V11.5358H1.16675V16.9288H4.66675V27.7148H9.33342V16.9288H12.8334L14.0001 11.5358H9.33342V7.49103C9.33342 7.13345 9.45633 6.79051 9.67512 6.53767C9.89392 6.28482 10.1907 6.14277 10.5001 6.14277H14.0001V0.749756Z" stroke="currentColor" stroke-width="1.1" stroke-linecap="round" stroke-linejoin="round"/>
</g></symbol><symbol id="fb" viewBox="0 0 32 32"><g fill="none">
<path d="M13.04 29.333L13 17.666H8V12.666H13V9.33302C13 4.84002 15.787 2.66602 19.8 2.66602C21.72 2.66602 23.373 2.79902 23.853 2.86602V7.57302H21.066C18.893 7.57302 18.466 8.61302 18.466 10.133V12.666H24.666L22.999 17.666H18.466V29.333H13.039H13.04Z" fill="black"/>
</g></symbol><symbol id="gift" viewBox="0 0 78 80"><g fill="none">
<path d="M64.0156 34.7129H14.031C12.2766 34.7129 10.8494 33.2954 10.8494 31.5526V22.0845C10.8494 20.3417 12.2766 18.9236 14.031 18.9236H64.0149C65.7687 18.9236 67.1953 20.3417 67.1953 22.0845V31.5533C67.1959 33.2954 65.7693 34.7129 64.0156 34.7129ZM14.031 21.3457C13.6276 21.3457 13.2869 21.6842 13.2869 22.0845V31.5533C13.2869 31.9602 13.6208 32.2914 14.031 32.2914H64.0149C64.4244 32.2914 64.7578 31.9602 64.7578 31.5533V22.0845C64.7578 21.6836 64.4171 21.3457 64.0149 21.3457H14.031Z" fill="white"/>
<path d="M57.0447 67.1491H20.999C17.6218 67.1491 14.8741 64.4193 14.8741 61.0628V33.5018C14.8741 32.8333 15.4201 32.2908 16.0929 32.2908C16.7656 32.2908 17.3116 32.8333 17.3116 33.5018V61.0628C17.3116 63.0835 18.9661 64.7269 20.999 64.7269H57.0447C59.077 64.7269 60.7308 63.0835 60.7308 61.0628V33.5018C60.7308 32.8333 61.2768 32.2908 61.9496 32.2908C62.6223 32.2908 63.1683 32.8333 63.1683 33.5018V61.0628C63.1683 64.4193 60.4213 67.1491 57.0447 67.1491Z" fill="white"/>
<path d="M39.0225 67.1491C38.3498 67.1491 37.8038 66.6071 37.8038 65.938V33.5018C37.8038 32.8333 38.3498 32.2908 39.0225 32.2908C39.6953 32.2908 40.2413 32.8333 40.2413 33.5018V65.9374C40.2413 66.6071 39.6959 67.1491 39.0225 67.1491Z" fill="white"/>
<path d="M23.8113 21.3416C19.9966 19.2876 18.5731 14.533 20.6383 10.7417C22.7022 6.95225 27.4864 5.53711 31.303 7.58746C37.117 10.7169 40.2565 19.4475 40.3869 19.8175L38.0877 20.621C38.0585 20.5387 35.1256 12.3997 30.1433 9.71773C27.5078 8.30199 24.2062 9.27933 22.7821 11.8946C21.3567 14.5124 22.339 17.7944 24.9734 19.2119L23.8113 21.3416Z" fill="white"/>
<path d="M54.2313 21.3416L53.071 19.2113C54.3477 18.524 55.2782 17.385 55.6926 16.0038C56.1063 14.622 55.9534 13.1626 55.2617 11.8952C54.5719 10.6266 53.4263 9.70258 52.0363 9.29142C50.6457 8.88026 49.1783 9.03164 47.9023 9.71771C42.9201 12.399 39.9871 20.538 39.9579 20.6204L37.6587 19.8168C37.7891 19.4469 40.928 10.7162 46.7421 7.58744C48.5897 6.59315 50.7182 6.37394 52.7316 6.96979C54.7468 7.56503 56.4061 8.90508 57.4061 10.7417C58.4073 12.5777 58.6285 14.6916 58.0289 16.6941C57.4287 18.696 56.0801 20.3461 54.2313 21.3416Z" fill="white"/>
<path d="M61.9496 50.9317H16.0929C15.4201 50.9317 14.8741 50.3891 14.8741 49.7206C14.8741 49.0521 15.4201 48.5095 16.0929 48.5095H61.9496C62.6223 48.5095 63.1683 49.0521 63.1683 49.7206C63.1683 50.3891 62.6229 50.9317 61.9496 50.9317Z" fill="white"/>
</g></symbol><symbol id="html_academy" viewBox="0 0 27 34"><g fill="none">
<path d="M13.6426 0.0157537L13.5 0L0 1.40733V26.0129L13.5 34L27 26.0129V1.40733L13.6426 0.0157537ZM25.2344 25.0151L13.5 31.9573L1.76561 25.0151V14.9293L13.4507 21.8451L13.4701 23.0984L5.45351 18.3548L5.44295 19.5801L13.4894 24.3885L13.5088 25.675L5.46408 20.9174L5.45351 22.1427L13.5 26.9511L21.6239 22.1182V20.8929V16.909L25.2432 14.7595L25.2344 25.0151ZM25.2344 13.4519L22.0147 15.3319L20.5325 16.2071L13.4666 12.0201L13.456 13.2454L19.4957 16.818L19.4429 16.8495L19.3126 16.9247L18.4536 17.4166L13.4666 14.4689L13.456 15.6942L17.3921 18.0222L16.4591 18.6314L16.438 18.6436L13.4666 16.902L13.456 18.1273L15.4029 19.2615L13.4155 20.4483L1.7973 13.5762L13.4349 6.61831L25.2344 13.4519ZM25.2344 12.2266L13.4401 5.31075L1.76561 12.2196V2.9897L13.5 1.76442L25.2344 2.9897V12.2266Z" fill="currentColor"/>
</g></symbol><symbol id="instagram" viewBox="0 0 28 28"><g fill="none">
<path d="M15.36 0.666992C17.76 0.666992 18.267 0.693992 19.493 0.746992C20.906 0.813992 21.88 1.03999 22.72 1.37399C23.6 1.70699 24.347 2.17399 25.08 2.90699C25.827 3.63999 26.28 4.38699 26.627 5.26699C26.96 6.10699 27.174 7.07999 27.24 8.50699C27.307 9.77399 27.32 10.267 27.32 12.934V15.067C27.32 17.734 27.307 18.227 27.24 19.494C27.217 20.659 26.994 21.764 26.604 22.788L26.626 22.721C26.279 23.601 25.826 24.348 25.093 25.081C24.346 25.828 23.6 26.281 22.72 26.628C21.88 26.961 20.907 27.175 19.493 27.241C18.226 27.308 17.72 27.321 15.053 27.321H12.933C10.266 27.321 9.77302 27.308 8.49302 27.241C7.32802 27.218 6.22302 26.995 5.19902 26.605L5.26602 26.627C4.34302 26.274 3.55602 25.753 2.90702 25.094L2.90602 25.093C2.24002 24.441 1.71402 23.649 1.37402 22.764L1.35902 22.719C0.992025 21.763 0.769025 20.657 0.746025 19.502V19.492C0.693025 18.45 0.663025 17.229 0.663025 16.002C0.663025 15.776 0.664025 15.55 0.666025 15.325V15.359V12.626C0.666025 10.226 0.693025 9.71899 0.746025 8.49299C0.813025 7.07999 1.03902 6.10599 1.35902 5.26599C1.70602 4.38599 2.15902 3.63899 2.90602 2.90599C3.55102 2.23899 4.34002 1.71599 5.22302 1.38699L5.26602 1.37299C6.22102 1.00199 7.32603 0.773992 8.48102 0.746992H8.49302C9.72003 0.693992 10.226 0.666992 12.626 0.666992H15.36ZM15.387 3.06699H12.6C10.293 3.06699 9.80002 3.09399 8.60003 3.14699C7.30702 3.19999 6.60003 3.41399 6.13303 3.59999C5.50603 3.83999 5.06602 4.13299 4.60002 4.59999C4.13402 5.06699 3.84002 5.50699 3.60002 6.13299C3.42702 6.59999 3.20002 7.30599 3.14702 8.61299C3.09402 9.81299 3.06702 10.293 3.06702 12.613V15.386C3.06702 17.706 3.09402 18.186 3.14702 19.386C3.20002 20.679 3.41402 21.386 3.60002 21.853C3.84002 22.48 4.13302 22.92 4.60002 23.386C5.06702 23.852 5.50703 24.146 6.13303 24.386C6.60003 24.573 7.30602 24.786 8.61302 24.839C9.90602 24.906 10.373 24.919 13.253 24.919H14.733C17.626 24.919 18.08 24.906 19.386 24.839C20.679 24.786 21.386 24.572 21.853 24.386C22.48 24.146 22.92 23.853 23.386 23.386C23.852 22.919 24.146 22.479 24.386 21.853C24.573 21.386 24.786 20.68 24.839 19.386C24.906 18.079 24.919 17.626 24.919 14.733V13.266C24.919 10.373 24.906 9.90599 24.839 8.59899C24.786 7.30599 24.572 6.59899 24.386 6.13199C24.16 5.53099 23.819 5.01799 23.387 4.59999L23.386 4.59899C22.966 4.16599 22.454 3.82499 21.881 3.60799L21.853 3.59899C21.121 3.32299 20.275 3.15799 19.391 3.14599H19.386C18.358 3.09399 17.155 3.06399 15.944 3.06399C15.748 3.06399 15.552 3.06499 15.356 3.06599H15.386L15.387 3.06699ZM14 7.14699C17.781 7.14699 20.847 10.212 20.847 13.994C20.847 17.776 17.782 20.841 14 20.841C10.219 20.841 7.15302 17.776 7.15302 13.994C7.15302 10.212 10.218 7.14699 14 7.14699ZM14 9.54699C11.544 9.54699 9.55303 11.538 9.55303 13.994C9.55303 16.45 11.544 18.441 14 18.441C16.456 18.441 18.447 16.45 18.447 13.994C18.447 11.538 16.456 9.54699 14 9.54699ZM21.107 5.27999C21.991 5.27999 22.707 5.99599 22.707 6.87999C22.707 7.76399 21.991 8.47999 21.107 8.47999C20.223 8.47999 19.507 7.76399 19.507 6.87999C19.507 5.99599 20.223 5.27999 21.107 5.27999Z" fill="black"/>
</g></symbol><symbol id="mail" viewBox="0 0 90 90">

  <path d="M 75.546 78.738 H 14.455 C 6.484 78.738 0 72.254 0 64.283 V 25.716 c 0 -7.97 6.485 -14.455 14.455 -14.455 h 61.091 c 7.97 0 14.454 6.485 14.454 14.455 v 38.567 C 90 72.254 83.516 78.738 75.546 78.738 z M 14.455 15.488 c -5.64 0 -10.228 4.588 -10.228 10.228 v 38.567 c 0 5.64 4.588 10.229 10.228 10.229 h 61.091 c 5.64 0 10.228 -4.589 10.228 -10.229 V 25.716 c 0 -5.64 -4.588 -10.228 -10.228 -10.228 H 14.455 z" style="stroke: none; stroke-width: 1; stroke-dasharray: none; stroke-linecap: butt; stroke-linejoin: miter; stroke-miterlimit: 10; fill: inherit; fill-rule: nonzero; opacity: 1;" transform=" matrix(1 0 0 1 0 0) " stroke-linecap="round"/>
  <path d="M 11.044 25.917 C 21.848 36.445 32.652 46.972 43.456 57.5 c 2.014 1.962 5.105 -1.122 3.088 -3.088 C 35.74 43.885 24.936 33.357 14.132 22.83 C 12.118 20.867 9.027 23.952 11.044 25.917 L 11.044 25.917 z" style="stroke: none; stroke-width: 1; stroke-dasharray: none; stroke-linecap: butt; stroke-linejoin: miter; stroke-miterlimit: 10; fill: inherit; fill-rule: nonzero; opacity: 1;" transform=" matrix(1 0 0 1 0 0) " stroke-linecap="round"/>
  <path d="M 46.544 57.5 c 10.804 -10.527 21.608 -21.055 32.412 -31.582 c 2.016 -1.965 -1.073 -5.051 -3.088 -3.088 C 65.064 33.357 54.26 43.885 43.456 54.412 C 41.44 56.377 44.529 59.463 46.544 57.5 L 46.544 57.5 z" style="stroke: none; stroke-width: 1; stroke-dasharray: none; stroke-linecap: butt; stroke-linejoin: miter; stroke-miterlimit: 10; fill: inherit; fill-rule: nonzero; opacity: 1;" transform=" matrix(1 0 0 1 0 0) " stroke-linecap="round"/>
  <path d="M 78.837 64.952 c -7.189 -6.818 -14.379 -13.635 -21.568 -20.453 c -2.039 -1.933 -5.132 1.149 -3.088 3.088 c 7.189 6.818 14.379 13.635 21.568 20.453 C 77.788 69.973 80.881 66.89 78.837 64.952 L 78.837 64.952 z" style="stroke: none; stroke-width: 1; stroke-dasharray: none; stroke-linecap: butt; stroke-linejoin: miter; stroke-miterlimit: 10; fill: inherit; fill-rule: nonzero; opacity: 1;" transform=" matrix(1 0 0 1 0 0) " stroke-linecap="round"/>
  <path d="M 14.446 68.039 c 7.189 -6.818 14.379 -13.635 21.568 -20.453 c 2.043 -1.938 -1.048 -5.022 -3.088 -3.088 c -7.189 6.818 -14.379 13.635 -21.568 20.453 C 9.315 66.889 12.406 69.974 14.446 68.039 L 14.446 68.039 z" style="stroke: none; stroke-width: 1; stroke-dasharray: none; stroke-linecap: butt; stroke-linejoin: miter; stroke-miterlimit: 10; fill: inherit; fill-rule: nonzero; opacity: 1;" transform=" matrix(1 0 0 1 0 0) " stroke-linecap="round"/>

</symbol><symbol id="menu" viewBox="0 0 32 32"><path d="M5 8h22M5 16h22M27 24H5" stroke-width="3" stroke-linecap="round"/></symbol><symbol id="phone" viewBox="0 0 20 20"><g fill="none">
<g clip-path="url(#clip0_2403_1829)">
<path d="M17.9 9.4H9.40002V10.6H17.9L15.8 12.7L16.7 13.6L19.8 10.5C19.8974 10.3702 19.95 10.2123 19.95 10.05C19.95 9.88772 19.8974 9.72982 19.8 9.6L16.7 6.5L15.8 7.4L17.9 9.4Z" fill="currentColor"/>
<path d="M8.09995 19.4V13.2C8.0884 13.0447 8.02148 12.8987 7.91136 12.7886C7.80125 12.6785 7.65525 12.6116 7.49995 12.6H3.09995C3.1051 12.9167 3.23318 13.2189 3.45712 13.4428C3.68106 13.6668 3.9833 13.7949 4.29995 13.8H6.79995V18.8H3.09995C2.86319 18.8149 2.62585 18.7825 2.4017 18.7048C2.17756 18.6271 1.97109 18.5057 1.7943 18.3475C1.61751 18.1893 1.47393 17.9976 1.37189 17.7834C1.26986 17.5693 1.21142 17.337 1.19995 17.1V3.10001C1.19175 2.6373 1.3651 2.18977 1.68286 1.85331C2.00062 1.51686 2.43752 1.31824 2.89995 1.30001H6.79995V6.30001H4.39995C4.0833 6.30516 3.78106 6.43324 3.55712 6.65718C3.33318 6.88112 3.2051 7.18336 3.19995 7.50001H7.59995C7.75525 7.48846 7.90125 7.42154 8.01136 7.31142C8.12148 7.2013 8.1884 7.05531 8.19995 6.90001V0.600012C8.15226 0.443872 8.06111 0.304534 7.93715 0.198285C7.81319 0.0920352 7.66155 0.0232649 7.49995 1.23734e-05H3.09995C2.70593 -0.0133408 2.31315 0.0511002 1.94405 0.189651C1.57495 0.328202 1.23678 0.538145 0.948872 0.807477C0.660965 1.07681 0.428969 1.40025 0.266146 1.7593C0.103324 2.11835 0.0128689 2.50598 -4.64045e-05 2.90001V16.8C-0.0290254 17.1977 0.0245894 17.597 0.157426 17.9729C0.290263 18.3489 0.499448 18.6932 0.771825 18.9844C1.0442 19.2756 1.37388 19.5072 1.74012 19.6648C2.10637 19.8224 2.50126 19.9024 2.89995 19.9H7.49995C7.57344 19.915 7.64937 19.9133 7.7221 19.895C7.79484 19.8767 7.86253 19.8423 7.92015 19.7942C7.97777 19.7462 8.02385 19.6859 8.05497 19.6176C8.0861 19.5494 8.10147 19.475 8.09995 19.4Z" fill="currentColor"/>
</g>

</g></symbol><symbol id="pinterest" viewBox="0 0 32 32"><g fill="none">
<path d="M16 2.66699C8.65699 2.69399 2.71399 8.65299 2.71399 16C2.71399 21.599 6.16599 26.393 11.057 28.368L11.146 28.4C11.013 27.347 10.919 25.733 11.186 24.573L12.746 17.946C12.746 17.946 12.346 17.146 12.346 15.973C12.346 14.12 13.426 12.746 14.773 12.746C15.906 12.746 16.466 13.599 16.466 14.613C16.466 15.76 15.733 17.466 15.346 19.053C15.026 20.386 16.013 21.466 17.333 21.466C19.706 21.466 21.52 18.973 21.52 15.373C21.52 12.173 19.227 9.95999 15.947 9.95999C15.871 9.95599 15.783 9.95399 15.694 9.95399C12.505 9.95399 9.92099 12.539 9.92099 15.727C9.92099 15.729 9.92099 15.731 9.92099 15.733C9.92099 16.88 10.361 18.106 10.908 18.773C11.015 18.906 11.028 19.026 10.988 19.16L10.615 20.667C10.562 20.907 10.415 20.974 10.175 20.854C8.49499 20.067 7.45499 17.654 7.45499 15.681C7.45499 11.481 10.522 7.62799 16.282 7.62799C20.895 7.62799 24.509 10.908 24.509 15.321C24.509 19.921 21.602 23.614 17.576 23.614C16.243 23.614 14.963 22.907 14.536 22.081L13.696 25.241C13.265 26.578 12.704 27.739 12.008 28.804L12.042 28.748C13.212 29.12 14.558 29.335 15.953 29.335C23.317 29.335 29.286 23.365 29.286 16.002C29.286 8.65499 23.344 2.69599 16.004 2.66899H16.001L16 2.66699Z" fill="black"/>
</g></symbol><symbol id="plus" viewBox="0 0 30 30"><g fill="none">
<line x1="15" x2="15" y2="30" stroke="#D3D3D3" stroke-width="1"/>
<line x1="30" y1="15" y2="15" stroke="#D3D3D3" stroke-width="1"/>
</g></symbol><symbol id="reservation" viewBox="0 0 17 18"><g fill="none">
<path d="M13.8877 3H3.3877C2.55927 3 1.8877 3.67157 1.8877 4.5V15C1.8877 15.8284 2.55927 16.5 3.3877 16.5H13.8877C14.7161 16.5 15.3877 15.8284 15.3877 15V4.5C15.3877 3.67157 14.7161 3 13.8877 3Z" stroke="white" stroke-width="2" stroke-linecap="round" stroke-linejoin="round"/>
<path d="M11.6377 1.5V4.5" stroke="white" stroke-width="2" stroke-linecap="round" stroke-linejoin="round"/>
<path d="M5.6377 1.5V4.5" stroke="white" stroke-width="2" stroke-linecap="round" stroke-linejoin="round"/>
<path d="M1.8877 7.5H15.3877" stroke="white" stroke-width="2" stroke-linecap="round" stroke-linejoin="round"/>
</g></symbol><symbol id="search" viewBox="0 0 16 16"><g fill="none">
<path d="M15.8041 14.8638L11.9576 11.0172C12.911 9.85475 13.4857 8.36576 13.4857 6.74289C13.4857 3.02042 10.4653 0 6.74286 0C3.01714 0 0 3.02042 0 6.74289C0 10.4654 3.01714 13.4858 6.74286 13.4858C8.36571 13.4858 9.85143 12.9144 11.0139 11.9609L14.8604 15.8042C15.1216 16.0654 15.5429 16.0654 15.8041 15.8042C16.0653 15.5462 16.0653 15.1217 15.8041 14.8638ZM6.74286 12.1437C3.76163 12.1437 1.33878 9.72087 1.33878 6.74289C1.33878 3.76492 3.76163 1.33878 6.74286 1.33878C9.72082 1.33878 12.1469 3.76492 12.1469 6.74289C12.1469 9.72087 9.72082 12.1437 6.74286 12.1437Z" fill="#1B1A17"/>
</g></symbol><symbol id="telegram" viewBox="0 0 31 28">
                      <path fill-rule="evenodd" clip-rule="evenodd" d="M6.68143 17.0294C6.74709 17.0515 6.81336 17.0672 6.87957 17.0769C6.95177 17.2465 7.04507 17.466 7.1539 17.7227C7.41951 18.3492 7.7774 19.1964 8.14681 20.0803C8.90018 21.8828 9.6601 23.7409 9.82793 24.2728C10.0357 24.9302 10.2553 25.3773 10.4951 25.6824C10.619 25.8402 10.7624 25.978 10.9302 26.0823C11.0146 26.1349 11.1038 26.178 11.1969 26.21C11.201 26.2115 11.2051 26.2128 11.2092 26.2142C11.6893 26.3954 12.1269 26.3199 12.4009 26.2276C12.5475 26.1783 12.6661 26.1186 12.7502 26.0703C12.7931 26.0456 12.8293 26.0226 12.8582 26.0032L12.865 25.9986L17.1043 23.3549L22.0011 27.1091C22.0734 27.1645 22.1522 27.211 22.2356 27.2474C22.8239 27.5041 23.3936 27.5936 23.9295 27.5204C24.4644 27.4474 24.8892 27.2226 25.2053 26.9697C25.515 26.7219 25.7249 26.4445 25.8556 26.2383C25.9223 26.1331 25.9725 26.04 26.0078 25.9686C26.0256 25.9328 26.0398 25.9019 26.0508 25.8771L26.065 25.8444L26.0703 25.8316L26.0726 25.8261L26.0736 25.8236L26.0745 25.8212C26.1003 25.7569 26.12 25.6903 26.1335 25.6224L30.6038 3.08411C30.6181 3.01203 30.6253 2.93872 30.6253 2.86524C30.6253 2.20522 30.3766 1.57761 29.7919 1.19677C29.2921 0.871277 28.7353 0.857266 28.3835 0.883974C28.0039 0.912783 27.6533 1.00648 27.4181 1.08136C27.2957 1.12032 27.193 1.15792 27.119 1.1866C27.0818 1.20102 27.0513 1.21338 27.0286 1.22282L27.0116 1.23L1.941 11.0648L1.93776 11.066C1.92178 11.0718 1.90127 11.0794 1.87689 11.0889C1.82834 11.1078 1.7633 11.1345 1.68732 11.1689C1.53914 11.2361 1.33127 11.341 1.11796 11.4871C0.777178 11.7205 -0.00655693 12.3596 0.125415 13.4146C0.230698 14.2562 0.807269 14.7731 1.15855 15.0216C1.35144 15.1581 1.53469 15.2557 1.66814 15.3192C1.73006 15.3487 1.8586 15.4009 1.91438 15.4236L1.92845 15.4293L6.68143 17.0294ZM27.889 3.3018L27.8855 3.30332C27.873 3.30874 27.8604 3.31394 27.8477 3.31891L2.74672 13.1657C2.73362 13.1708 2.72041 13.1757 2.70712 13.1804L2.69315 13.1857C2.6771 13.1919 2.65006 13.2029 2.61612 13.2183C2.59688 13.227 2.57681 13.2365 2.55633 13.2467C2.58446 13.2625 2.61138 13.2763 2.6353 13.2877C2.65826 13.2986 2.67578 13.3061 2.68537 13.31L7.39931 14.897C7.48559 14.9261 7.56603 14.9646 7.63986 15.011L23.205 5.89922L23.2196 5.8906C23.2309 5.88391 23.2458 5.8753 23.2637 5.86521C23.2991 5.84518 23.3478 5.81851 23.4057 5.78905C23.5137 5.73407 23.6865 5.65245 23.8812 5.59228C24.0168 5.55038 24.4165 5.43235 24.8486 5.57095C25.1154 5.6565 25.3915 5.84041 25.5711 6.15197C25.6603 6.30676 25.7079 6.46224 25.7309 6.60458C25.7921 6.8288 25.7824 7.05021 25.7345 7.24136C25.6314 7.65312 25.3421 7.97431 25.0788 8.21997C24.8533 8.4306 21.9352 11.2444 19.0565 14.022C17.6209 15.4072 16.2 16.7787 15.1379 17.8039L14.4404 18.4773L23.2483 25.2301C23.4503 25.3024 23.5697 25.2987 23.6249 25.2911C23.6908 25.2822 23.7446 25.2568 23.7997 25.2128C23.8612 25.1635 23.9151 25.0971 23.9553 25.0336L23.9569 25.031L28.2926 3.17153C28.2283 3.18699 28.1632 3.20541 28.1005 3.22537C28.0295 3.24798 27.9709 3.26951 27.9321 3.28456C27.9129 3.29201 27.899 3.29766 27.8915 3.30078L27.889 3.3018ZM15.1971 21.8926L13.4398 20.5454L13.014 23.254L15.1971 21.8926ZM11.8278 17.8721L13.5753 16.1851C14.6374 15.1598 16.0585 13.7882 17.4942 12.4029L18.9529 10.9955L9.17291 16.7207L9.22539 16.8444C9.49194 17.4731 9.85142 18.3241 10.2228 19.2126C10.5005 19.8771 10.7909 20.5767 11.0554 21.2244L11.4799 18.5238C11.5208 18.2634 11.648 18.038 11.8278 17.8721Z"/>
                      </symbol><symbol id="tw" viewBox="0 0 32 32"><g fill="none">
<path d="M29.333 7.83998C28.333 8.33298 27.333 8.50698 26.16 8.66698C27.333 7.99998 28.16 6.99998 28.493 5.66698C27.488 6.27498 26.317 6.73798 25.07 6.98898L25 7.00098C23.969 5.98698 22.56 5.35498 21.004 5.33398H21C18.16 5.33398 15.667 7.84098 15.667 10.841C15.667 11.334 15.667 11.668 15.84 12.001C11.262 11.823 7.22103 9.66398 4.52903 6.36198L4.50703 6.33398C4.08203 7.05998 3.83103 7.93198 3.83103 8.86298C3.83103 8.97198 3.83403 9.08098 3.84103 9.18898L3.84003 9.17398C3.87403 11.052 4.84903 12.695 6.31303 13.655L6.33403 13.668C5.49403 13.668 4.66703 13.335 3.82703 13.001C3.82703 15.668 5.66703 17.841 8.16003 18.334C7.66703 18.507 7.16003 18.507 6.66703 18.507C6.33403 18.507 6.00003 18.507 5.66703 18.334C6.33403 20.507 8.33403 22.174 10.84 22.174C9.04003 23.629 6.72403 24.509 4.20303 24.509C4.13203 24.509 4.06103 24.508 3.99003 24.507H4.00103H2.66803C5.03303 26.016 7.90403 26.936 10.984 27H11.001C21.001 27 26.508 18.667 26.508 11.493V10.826C27.655 10.036 28.601 9.03898 29.311 7.88198L29.335 7.83998H29.333Z" fill="black"/>
</g></symbol><symbol id="vk" viewBox="0 0 36 23">
<path fill-rule="evenodd" clip-rule="evenodd" d="M35.1074 18.2975C34.2916 16.6542 33.2166 15.1532 31.9238 13.8519C31.4838 13.3405 30.9679 12.8357 30.5652 12.4417L30.5089 12.3867C30.3013 12.1834 30.1296 12.0147 29.9891 11.8693C31.7569 9.41112 33.2699 6.77892 34.5045 4.01334L34.5543 3.90175L34.5892 3.78464C34.7515 3.2403 34.9383 2.2052 34.2773 1.26976C33.594 0.302884 32.4999 0.128513 31.7673 0.128513H28.3967C27.694 0.0962983 26.9982 0.28626 26.4087 0.672469C25.8147 1.06159 25.3603 1.62916 25.1103 2.29265C24.3844 4.02169 23.4761 5.6663 22.4021 7.19897V3.24904C22.4021 2.73845 22.354 1.88434 21.8073 1.16344C21.1527 0.300281 20.2061 0.128513 19.549 0.128513H14.2006C13.5116 0.112577 12.8414 0.358961 12.3264 0.818884C11.799 1.28989 11.4758 1.94781 11.4253 2.65314L11.4205 2.71996V2.78695C11.4205 3.51517 11.7091 4.05233 11.9396 4.39016C12.0428 4.54141 12.1532 4.67909 12.223 4.76605L12.2391 4.78612C12.3134 4.87885 12.3631 4.94073 12.4129 5.00849C12.5439 5.18672 12.7324 5.46152 12.7857 6.17261V8.38205C11.8637 6.86635 10.891 4.84935 10.1591 2.69516L10.1479 2.6621L10.1355 2.62948C9.95297 2.15155 9.66029 1.45615 9.07411 0.923996C8.38932 0.302318 7.57934 0.128513 6.84273 0.128513H3.42281C2.67759 0.128513 1.7792 0.302849 1.10886 1.00999C0.449659 1.70537 0.375 2.5386 0.375 2.98164V3.18133L0.417058 3.37654C1.36432 7.77322 3.31614 11.8905 6.11919 15.4065C7.39002 17.4106 9.11202 19.0904 11.1482 20.3113C13.2169 21.5517 15.5506 22.2828 17.9572 22.4446L18.02 22.4488H18.0829C19.1717 22.4488 20.3067 22.3548 21.1602 21.7861C22.3116 21.0188 22.4021 19.8404 22.4021 19.2532V17.5463C22.6975 17.7852 23.0642 18.1067 23.5129 18.5388C24.0555 19.0819 24.4874 19.5524 24.858 19.9631L25.0557 20.183L25.0569 20.1842C25.3446 20.5046 25.6278 20.82 25.8857 21.0792C26.2098 21.4051 26.6094 21.7641 27.1117 22.0294C27.6556 22.3166 28.2266 22.4465 28.8329 22.4465H32.2552C32.9762 22.4465 34.0103 22.276 34.7373 21.4331C35.5296 20.5145 35.4691 19.3886 35.22 18.5795L35.1752 18.4339L35.1074 18.2975ZM26.5286 18.4559C26.1433 18.0289 25.6788 17.5226 25.0918 16.9356L25.0869 16.9308C23.0527 14.9697 22.1023 14.6279 21.4301 14.6279C21.0727 14.6279 20.6772 14.668 20.4205 14.9878C20.2994 15.1387 20.2357 15.3207 20.2 15.5105C20.1644 15.7 20.1521 15.9224 20.1521 16.1758V19.2532C20.1521 19.6354 20.0893 19.7959 19.9125 19.9137C19.677 20.0706 19.1737 20.1978 18.0955 20.1988C16.049 20.0593 14.0646 19.4365 12.3052 18.3816C10.5423 17.3245 9.05563 15.8638 7.96781 14.1196L7.95597 14.1006L7.94196 14.0832C5.33006 10.8322 3.51004 7.01857 2.62545 2.94365C2.63025 2.74721 2.67281 2.63067 2.74176 2.55793C2.81281 2.48298 2.98498 2.37851 3.42281 2.37851H6.84273C7.22317 2.37851 7.42005 2.46127 7.56175 2.58991C7.7224 2.73575 7.86173 2.98341 8.03101 3.42563C8.87043 5.8946 10.0056 8.20352 11.0805 9.90127C11.6178 10.7498 12.1465 11.4561 12.6229 11.9553C12.8608 12.2044 13.094 12.4109 13.3165 12.5577C13.532 12.6998 13.7762 12.8118 14.0274 12.8118C14.1599 12.8118 14.3149 12.7982 14.4642 12.7321C14.6247 12.661 14.7494 12.5425 14.8374 12.3838C14.993 12.103 15.0357 11.687 15.0357 11.1421V6.09649L15.0349 6.08465C14.9572 4.85713 14.5866 4.16665 14.2257 3.67578C14.1466 3.5682 14.0686 3.47102 14.0004 3.38599L13.9817 3.36269C13.9068 3.26924 13.8471 3.19373 13.7981 3.12192C13.7084 2.99036 13.6736 2.89863 13.6707 2.80034C13.6824 2.68367 13.7374 2.57541 13.8251 2.49708C13.9162 2.41578 14.0353 2.37346 14.1572 2.37851H19.549C19.858 2.37851 19.9621 2.45393 20.0145 2.52302C20.0885 2.62056 20.1521 2.82339 20.1521 3.24904V10.042C20.1521 10.8489 20.524 11.3951 21.0642 11.3951C21.6858 11.3951 22.1339 11.0179 22.9174 10.2344L22.9305 10.2213L22.9422 10.207C24.6984 8.06534 26.1337 5.67947 27.2021 3.12415L27.2089 3.10499C27.2892 2.8792 27.4412 2.68588 27.6417 2.55455C27.8421 2.42322 28.0801 2.36108 28.3192 2.37762L28.3321 2.37851H31.7673C32.2358 2.37851 32.3899 2.49775 32.4398 2.56825C32.4928 2.64328 32.5297 2.80406 32.4395 3.11938C31.2079 5.87398 29.6848 8.48869 27.8971 10.9195L27.8858 10.9368C27.7122 11.2022 27.5218 11.4958 27.4942 11.8331C27.4646 12.1952 27.6214 12.5244 27.8956 12.8772C28.0953 13.1727 28.5074 13.576 28.9254 13.9852L28.9648 14.0237C29.4031 14.4527 29.8779 14.9174 30.2591 15.3673L30.2693 15.3793L30.2804 15.3904C31.4166 16.5238 32.3614 17.8339 33.0781 19.2698C33.1924 19.6607 33.1224 19.8605 33.0335 19.9635C32.9294 20.0842 32.6965 20.1965 32.2552 20.1965H28.8329C28.5658 20.1965 28.3594 20.1438 28.1624 20.0397C27.957 19.9313 27.7457 19.7587 27.4809 19.4925C27.2676 19.278 27.0345 19.0186 26.7502 18.7021C26.6797 18.6237 26.6059 18.5416 26.5286 18.4559Z"/>
</symbol><symbol id="vkontakte" viewBox="0 0 29 18"><g fill="none">
<path d="M0.0914307 2.48988C0.0914307 1.63485 0.643326 1.17381 1.74712 1.10674L6.00052 1.13189C6.28599 1.13189 6.47629 1.25763 6.57145 1.50911C7.00916 2.76651 7.4992 3.85206 8.04158 4.76577C8.58397 5.67948 9.29287 6.7315 10.1683 7.92183C10.2444 8.07272 10.3681 8.14816 10.5394 8.14816C10.6726 8.14816 10.7773 8.08949 10.8534 7.97213L10.939 7.6955L10.9676 3.34491C10.9676 3.04313 10.8867 2.84195 10.7249 2.74136C10.5632 2.64077 10.2634 2.56532 9.82573 2.51503C9.48318 2.46473 9.3119 2.28031 9.3119 1.96177C9.3119 1.89471 9.32141 1.84442 9.34044 1.81089C9.74009 0.721143 10.8819 0.176271 12.766 0.176271L14.3646 0.151123C15.0878 0.151123 15.6872 0.310393 16.163 0.628934C16.6388 0.947474 16.8767 1.45043 16.8767 2.13781V7.84639C17.0099 7.93022 17.1336 7.97213 17.2478 7.97213C17.5332 7.97213 17.7806 7.82124 17.99 7.51947C20.0834 4.93761 21.2157 3.21079 21.387 2.33899C21.387 2.32223 21.406 2.28031 21.4441 2.21325C21.5773 1.96177 21.7962 1.74383 22.1007 1.55941C22.4051 1.37499 22.6716 1.24925 22.9 1.18219C22.9761 1.14866 23.0617 1.13189 23.1569 1.13189H27.5816L27.867 1.15704C28.2476 1.15704 28.5426 1.31631 28.752 1.63485C28.8281 1.73544 28.8804 1.84442 28.909 1.96177C28.9375 2.07913 28.9565 2.19649 28.966 2.31384C28.9756 2.4312 28.9803 2.49826 28.9803 2.51503V2.69106C28.8471 3.37844 28.5093 4.11192 27.9669 4.89151C27.4245 5.67109 26.7347 6.51355 25.8973 7.41887C25.06 8.3242 24.5366 8.91937 24.3273 9.20438C24.156 9.40556 24.0704 9.58998 24.0704 9.75763C24.0704 9.89175 24.1465 10.0426 24.2987 10.2103L28.4665 14.8375C28.6949 15.1058 28.809 15.3992 28.809 15.7177C28.809 16.1033 28.6378 16.4218 28.2952 16.6733C27.9527 16.9248 27.5435 17.0673 27.0677 17.1008L26.5824 17.126H22.2434C22.2244 17.126 22.1863 17.1302 22.1292 17.1385C22.0721 17.1469 22.034 17.1511 22.015 17.1511C21.5963 17.1511 21.2062 16.9919 20.8446 16.6733C20.7114 16.5392 19.8169 15.55 18.1613 13.7059C18.0661 13.5885 17.9329 13.4795 17.7616 13.3789C17.6855 13.6472 17.5856 14.0328 17.4619 14.5357C17.3382 15.0387 17.2478 15.3992 17.1907 15.6171L17.105 16.0446C16.9147 16.6314 16.5151 16.9835 15.9061 17.1008L15.5065 17.126H12.7089C11.1293 17.126 9.55454 16.4889 7.98449 15.2147C6.41444 13.9406 5.0014 12.2934 3.74536 10.2732C2.48932 8.25295 1.31892 5.90162 0.234162 3.21917C0.139008 3.00122 0.0914307 2.75813 0.0914307 2.48988ZM17.2478 9.00319C16.8481 9.00319 16.4865 8.90679 16.163 8.71399C15.8395 8.52119 15.6777 8.25714 15.6777 7.92183V2.13781C15.6777 1.8025 15.5826 1.5636 15.3923 1.42109C15.202 1.27859 14.8689 1.20734 14.3931 1.20734L12.766 1.25763C11.9477 1.25763 11.3292 1.38337 10.9105 1.63485C11.7479 1.98692 12.1665 2.55694 12.1665 3.34491V7.77095C12.1285 8.19008 11.9382 8.53796 11.5956 8.81458C11.253 9.09121 10.8724 9.22953 10.4538 9.22953C9.88282 9.22953 9.44511 8.98643 9.14062 8.50024C7.65621 6.52193 6.55242 4.64422 5.82924 2.8671L5.57233 2.21325L1.77566 2.18811C1.52826 2.18811 1.39029 2.20068 1.36174 2.22583C1.3332 2.25098 1.31892 2.32223 1.31892 2.43958C1.31892 2.59047 1.33795 2.74974 1.37602 2.9174L1.97549 4.32568C3.57408 7.96375 5.31065 10.8306 7.18519 12.9263C9.05974 15.0219 10.901 16.0698 12.7089 16.0698H15.5635C15.6777 16.0698 15.7634 16.0404 15.8205 15.9817C15.8776 15.9231 15.9251 15.8099 15.9632 15.6422L16.0203 15.3908L16.5627 13.1778C16.7149 12.876 16.8481 12.6748 16.9623 12.5742C17.1717 12.3898 17.4191 12.2976 17.7045 12.2976C18.1613 12.2976 18.6275 12.5407 19.1033 13.0269L21.5297 15.7428C21.682 15.9608 21.8437 16.0698 22.015 16.0698H26.7252C27.2961 16.0698 27.5816 15.944 27.5816 15.6925C27.5816 15.6087 27.553 15.5249 27.4959 15.4411L23.3567 10.8893C23.0332 10.5372 22.8714 10.16 22.8714 9.75763C22.8714 9.35527 23.0237 8.96966 23.3281 8.60083C23.5755 8.26552 24.0561 7.70808 24.7697 6.92849C25.4834 6.1489 26.1067 5.41961 26.6395 4.74062C27.1724 4.06163 27.5245 3.4455 27.6957 2.89225L27.7814 2.56532C27.7623 2.53179 27.7528 2.47731 27.7528 2.40186C27.7528 2.32642 27.7433 2.26355 27.7243 2.21325H23.2425C22.957 2.31384 22.7287 2.46473 22.5574 2.66592L22.3861 3.14373C21.9103 4.30053 20.6638 6.08603 18.6465 8.50024C18.2469 8.83554 17.7806 9.00319 17.2478 9.00319Z" fill="currentColor"/>
</g></symbol></svg>